<svg width="25" height="24" viewBox="0 0 25 24" fill="none" xmlns="http://www.w3.org/2000/svg">
<mask id="mask0_186_7542" style="mask-type:alpha" maskUnits="userSpaceOnUse" x="0" y="0" width="25" height="24">
<rect x="0.333984" width="24" height="24" fill="#D9D9D9"/>
</mask>
<g mask="url(#mask0_186_7542)">
<path d="M5.33398 19H6.59548L16.832 8.7635L15.5705 7.502L5.33398 17.7385V19ZM3.83398 20.5V17.1155L17.0245 3.93075C17.1757 3.79342 17.3426 3.68733 17.5252 3.6125C17.7081 3.5375 17.8997 3.5 18.1002 3.5C18.3007 3.5 18.4949 3.53558 18.6827 3.60675C18.8707 3.67792 19.0372 3.79108 19.182 3.94625L20.4032 5.18275C20.5584 5.32758 20.669 5.49425 20.735 5.68275C20.801 5.87125 20.834 6.05975 20.834 6.24825C20.834 6.44942 20.7997 6.64133 20.731 6.824C20.6623 7.00683 20.5531 7.17383 20.4032 7.325L7.21848 20.5H3.83398ZM16.1902 8.14375L15.5705 7.502L16.832 8.7635L16.1902 8.14375Z" fill="#1E2939"/>
</g>
</svg>
